<svg version="1.2" xmlns="http://www.w3.org/2000/svg" viewBox="0 0 500 500" width="500" height="500">
	<title>pluginIcon</title>
	<defs>
		<linearGradient id="g1" x2="1" gradientUnits="userSpaceOnUse" gradientTransform="matrix(0,186.625,-373.24,0,250,59.625)">
			<stop offset="0" stop-color="#ffffff"/>
			<stop offset="1" stop-color="#26bbd9"/>
		</linearGradient>
	</defs>
	<style>
		tspan { white-space:pre } 
		.s0 { fill: #232530 } 
		.s1 { fill: url(#g1) } 
		.s2 { fill: #59e3e3 } 
		.t3 { font-size: 100px;fill: #fbf72a;font-family: "Deja Vu Sans" } 
	</style>
	<g id="Layer_1">
	</g>
	<g id="Circle_Back">
		<path fill-rule="evenodd" class="s0" d="m249.8 501.9c-138.4 0-250.3-111.9-250.3-250.3 0-138.4 111.9-250.2 250.3-250.2 138.3 0 250.2 111.8 250.2 250.2 0 138.4-111.9 250.3-250.3 250.3z"/>
	</g>
	<g id="Moon_Full">
		<path id="Moon_1_" class="s1" d="m436.6 246.3c0-103.1-83.5-186.7-186.6-186.7-103.1 0-186.6 83.6-186.6 186.6z"/>
	</g>
	<g id="Water">
		<path id="Blocker_Round_1_" class="s0" d="m500.3 246.3c0 138.2-112.1 250.2-250.3 250.2-138.2 0-250.2-112-250.2-250.3z"/>
		<g id="Streams">
			<g id="Layer_7">
				<path class="s2" d="m478.3 256h-456.6c-1.1 0-2-0.9-2-2 0-1.1 0.9-2 2-2h456.6c1.1 0 2 0.9 2 2 0 1.1-0.9 2-2 2z"/>
				<path class="s2" d="m225.7 268.5h-193.2c-1.1 0-2-0.9-2-2 0-1.1 0.9-2 2-2h193.2c1.1 0 2 0.9 2 2 0 1.1-0.9 2-2 2z"/>
				<path class="s2" d="m447.3 268.5h-205.6c-1.1 0-2-0.9-2-2 0-1.1 0.9-2 2-2h205.5c1.2 0 2 0.9 2 2 0 1.1-0.8 2-2 2z"/>
				<path class="s2" d="m437.9 306h-59.8c-1.1 0-2-0.9-2-2 0-1.1 0.9-2 2-2h59.8c1.1 0 2 0.9 2 2 0 1.1-0.9 2-2 2z"/>
				<path class="s2" d="m362.1 306h-309.5c-1.1 0-2-0.9-2-2 0-1.1 0.9-2 2-2h309.5c1.1 0 2 0.9 2 2 0 1.1-0.9 2-2 2z"/>
				<path class="s2" d="m467.4 318.5h-168.8c-1.1 0-2-0.9-2-2 0-1.1 0.9-2 2-2h168.8c1.1 0 2 0.9 2 2 0 1.1-0.9 2-2 2z"/>
				<path class="s2" d="m282.6 318.5h-59.7c-1.1 0-2-0.9-2-2 0-1.1 0.9-2 2-2h59.7c1.1 0 2 0.9 2 2 0 1.1-0.9 2-2 2z"/>
				<path class="s2" d="m206.9 318.5h-172.7c-1.1 0-2-0.9-2-2 0-1.1 0.9-2 2-2h172.7c1.1 0 2 0.9 2 2 0 1.1-0.9 2-2 2z"/>
				<path class="s2" d="m421.4 331h-59.8c-1.1 0-2-0.9-2-2 0-1.1 0.9-2 2-2h59.8c1.1 0 2 0.9 2 2 0 1.1-0.9 2-2 2z"/>
				<path class="s2" d="m345.6 331h-292.3c-1.1 0-2-0.9-2-2 0-1.1 0.9-2 2-2h292.3c1.1 0 2 0.9 2 2 0 1.1-0.9 2-2 2z"/>
				<path class="s2" d="m389.5 343.5h-232.6c-1.1 0-2-0.9-2-2 0-1.1 0.9-2 2-2h232.6c1.1 0 2 0.9 2 2 0 1.1-0.9 2-2 2z"/>
				<path class="s2" d="m140.9 343.5h-59.8c-1.1 0-2-0.9-2-2 0-1.1 0.9-2 2-2h59.8c1.1 0 2 0.9 2 2 0 1.1-0.9 2-2 2z"/>
				<path class="s2" d="m408.4 356h-199.4c-1.1 0-2-0.9-2-2 0-1.1 0.9-2 2-2h199.4c1.1 0 2 0.9 2 2 0 1.1-0.9 2-2 2z"/>
				<path class="s2" d="m193 356h-106.9c-1.1 0-2-0.9-2-2 0-1.1 0.9-2 2-2h106.9c1.1 0 2 0.9 2 2 0 1.1-0.9 2-2 2z"/>
				<path class="s2" d="m412.3 368.5h-74.4c-1.1 0-2-0.9-2-2 0-1.1 0.9-2 2-2h74.3c1.2 0 2 0.9 2 2 0 1.1-0.8 2-2 2z"/>
				<path class="s2" d="m246.1 368.5h-168.8c-1.1 0-2-0.9-2-2 0-1.1 0.9-2 2-2h168.8c1.1 0 2 0.9 2 2 0 1.1-0.9 2-2 2z"/>
				<path class="s2" d="m321.9 368.5h-59.8c-1.1 0-2-0.9-2-2 0-1.1 0.9-2 2-2h59.8c1.1 0 2 0.9 2 2 0 1.1-0.9 2-2 2z"/>
				<path class="s2" d="m435.1 381h-297.4c-1.1 0-2-0.9-2-2 0-1.1 0.9-2 2-2h297.4c1.1 0 2 0.9 2 2 0 1.1-0.9 2-2 2z"/>
				<path class="s2" d="m121.8 381h-57c-1.1 0-2-0.9-2-2 0-1.1 0.9-2 2-2h57c1 0 2 0.9 2 2 0 1.1-1 2-2 2z"/>
				<path class="s2" d="m399.7 393.5h-113.1c-1.1 0-2-0.9-2-2 0-1.1 0.9-2 2-2h113.1c1.1 0 2 0.9 2 2 0 1.1-0.9 2-2 2z"/>
				<path class="s2" d="m270.6 393.5h-171.9c-1.1 0-2-0.9-2-2 0-1.1 0.9-2 2-2h171.9c1.1 0 2 0.9 2 2 0 1.1-0.9 2-2 2z"/>
				<path class="s2" d="m372.7 406h-152.5c-1.1 0-2-0.9-2-2 0-1.1 0.9-2 2-2h152.5c1.1 0 2 0.9 2 2 0 1.1-0.9 2-2 2z"/>
				<path class="s2" d="m204.2 406h-89.1c-1.1 0-2-0.9-2-2 0-1.1 0.9-2 2-2h89.1c1.1 0 2 0.9 2 2 0 1.1-0.9 2-2 2z"/>
				<path class="s2" d="m384.4 418.5h-116.1c-1.2 0-2-0.9-2-2 0-1.1 0.8-2 2-2h116.1c1.1 0 2 0.9 2 2 0 1.1-0.9 2-2 2z"/>
				<path class="s2" d="m252.3 418.5h-105.9c-1.1 0-2-0.9-2-2 0-1.1 0.9-2 2-2h105.9c1.1 0 2 0.9 2 2-0.1 1.1-1 2-2.1 2z"/>
				<path class="s2" d="m358 431h-59.8c-1.1 0-2-0.9-2-2 0-1.1 0.9-2 2-2h59.8c1.1 0 2 0.9 2 2 0 1.1-0.9 2-2 2z"/>
				<path class="s2" d="m282.3 431h-125.1c-1.1 0-2-0.9-2-2 0-1.1 0.9-2 2-2h125c1.2 0 2 0.9 2 2 0 1.1-0.8 2-2 2z"/>
				<path class="s2" d="m366.6 443.5h-234.1c-1.1 0-2-0.9-2-2 0-1.1 0.9-2 2-2h234.1c1.1 0 2 0.9 2 2 0 1.1-0.9 2-2 2z"/>
				<path class="s2" d="m323.8 456h-59.8c-1.1 0-2-0.9-2-2 0-1.1 0.9-2 2-2h59.8c1.1 0 2 0.9 2 2 0 1.1-0.9 2-2 2z"/>
				<path class="s2" d="m248 456h-75.3c-1 0-2-0.9-2-2 0-1.1 1-2 2-2h75.3c1.1 0 2 0.9 2 2 0 1.1-0.9 2-2 2z"/>
				<path class="s2" d="m279.9 468.5h-59.8c-1 0-2-0.9-2-2 0-1.1 1-2 2-2h59.8c1.1 0 2 0.9 2 2 0 1.1-0.9 2-2 2z"/>
				<path class="s2" d="m407.3 281h-76.9c-1.1 0-2-0.9-2-2 0-1.1 0.9-2 2-2h76.8c1.2 0 2 0.9 2 2 0 1.1-0.8 2-2 2z"/>
				<path class="s2" d="m159.8 281h-76.9c-1.1 0-2-0.9-2-2 0-1.1 0.9-2 2-2h76.9c1.1 0 2 0.9 2 2-0.1 1.1-1 2-2.1 2z"/>
				<path class="s2" d="m314.4 281h-138.6c-1.1 0-2-0.9-2-2 0-1.1 0.9-2 2-2h138.6c1.1 0 2 0.9 2 2 0 1.1-0.9 2-2 2z"/>
				<path class="s2" d="m427.4 293.5h-217.4c-1.1 0-2-0.9-2-2 0-1.1 0.9-2 2-2h217.4c1.1 0 2 0.9 2 2 0 1.1-0.9 2-2 2z"/>
				<path class="s2" d="m194 293.5h-126.1c-1.1 0-2-0.9-2-2 0-1.1 0.9-2 2-2h126.1c1.1 0 2 0.9 2 2 0 1.1-0.9 2-2 2z"/>
			</g>
		</g>
		<text id="R" style="transform: matrix(1,0,0,1,214,123)" >
			<tspan x="0" y="79.6" class="t3">R
</tspan>
		</text>
	</g>
</svg>